PathFileType	4	(x/y/z)	S04_P20_T18.trc
DataRate	CameraRate	NumFrames	NumMarkers	Units	OrigDataRate	OrigDataStartFrame	OrigNumFrames
240	240	4	51	mm	240	318	363
Frame#	Time	Sternum			R.Acromium			L.Acromium			Top.Head			R.ASIS			L.ASIS			R.PSIS			L.PSIS			R.Great.Tro			L.Great.Tro			R.Iliac.Crest			L.Iliac.Crest			V.Sacral			R.Thigh.Upper.Post			R.Thigh.Lower.Ant			R.Thigh.Lower.Post			R.Thigh.Upper.Ant			R.Knee.Lat			R.Knee.Med			R.Shank.Upper.Post			R.Shank.Lower.Ant			R.Shank.Lower.Post			R.Shank.Upper.Ant			R.Ankle.Lat			R.Ankle.Med			R.Heel.Upper			R.Heel.Med			R.Heel.Lat			R.Toe.Lat			R.Toe.Med			R.Toe.Tip			L.Thigh.Upper.Post			L.Thigh.Lower.Ant			L.Thigh.Lower.Post			L.Thigh.Upper.Ant			L.Knee.Lat			L.Knee.Med			L.Shank.Upper.Post			L.Shank.Lower.Ant			L.Shank.Lower.Post			L.Shank.Upper.Ant			L.Ankle.Lat			L.Ankle.Med			L.Heel.Upper			L.Heel.Med			L.Heel.Lat			L.Toe.Lat			L.Toe.Med			L.Toe.Tip			Cervical.Spine			Back			
		X1	Y1	Z1	X2	Y2	Z2	X3	Y3	Z3	X4	Y4	Z4	X5	Y5	Z5	X6	Y6	Z6	X7	Y7	Z7	X8	Y8	Z8	X9	Y9	Z9	X10	Y10	Z10	X11	Y11	Z11	X12	Y12	Z12	X13	Y13	Z13	X14	Y14	Z14	X15	Y15	Z15	X16	Y16	Z16	X17	Y17	Z17	X18	Y18	Z18	X19	Y19	Z19	X20	Y20	Z20	X21	Y21	Z21	X22	Y22	Z22	X23	Y23	Z23	X24	Y24	Z24	X25	Y25	Z25	X26	Y26	Z26	X27	Y27	Z27	X28	Y28	Z28	X29	Y29	Z29	X30	Y30	Z30	X31	Y31	Z31	X32	Y32	Z32	X33	Y33	Z33	X34	Y34	Z34	X35	Y35	Z35	X36	Y36	Z36	X37	Y37	Z37	X38	Y38	Z38	X39	Y39	Z39	X40	Y40	Z40	X41	Y41	Z41	X42	Y42	Z42	X43	Y43	Z43	X44	Y44	Z44	X45	Y45	Z45	X46	Y46	Z46	X47	Y47	Z47	X48	Y48	Z48	X49	Y49	Z49	X50	Y50	Z50	X51	Y51	Z51	

318	1.3208	382.33	1284	248.04	251.7	1514.7	416.33	259.75	1496.6	65.01	288.27	1838.3	227.53	346.43	1005.9	376.19	338.13	1018.2	128.72	131.13	1033.8	287.95	136.65	1040.2	206.83	270.4	925.43	445.51	215.99	933.41	70.188	258.28	1095.9	421.69	245.23	1101.1	85.702	114.44	994.55	246.36	356.36	677.08	436.79	453.11	625.01	398.63	386.6	592.27	421.37	425.03	730.68	419.21	426.7	535.86	411.73	407.52	525.55	277.33	366.74	309.03	407.3	443.03	236.16	373.32	372.99	239.78	393.24	433.56	305.65	395.59	394.29	124.71	376.2	425.82	139.28	290.29	339.73	87.148	311.38	357.1	58.718	282.91	343.14	54.197	345.25	503.82	59.494	417.41	555.05	68.518	307.49	608.02	92.457	363.13	179.35	703.8	87.785	250.97	600.54	92.413	180.17	614.85	99.739	245.12	689.68	75.998	206.36	514.44	106.24	213.21	504.01	229.93	97.181	344.43	113.3	156.9	251.15	113.33	94.692	267.25	120.95	159.66	327.4	104.62	119	104.1	135.42	123.6	113.75	228.8	40.72	73.958	181.43	46.89	48.766	215.24	44.432	46.459	153.41	227.81	42.066	112.51	260.11	46.582	229.1	316.76	55.607	178.96	205.76	1559.7	242.3	123.66	1303.2	221.67
319	1.325	387.7	1283.3	248.23	256.9	1514	416.45	265.36	1496	65.142	293.6	1837.7	227.72	351.86	1005.4	376.14	343.23	1017.5	128.73	136.41	1033.3	288.15	141.88	1039.6	207.04	275.77	924.86	445.65	220.79	932.96	70.299	263.93	1095.3	421.77	250.37	1100.5	85.763	119.7	993.99	246.59	360.83	676.22	436.82	457.54	624.09	398.69	390.99	591.41	421.38	429.53	729.78	419.21	431.69	535.37	411.77	412.2	524.53	277.37	377.26	307.19	407.55	455.27	236.31	373.53	385.24	238.11	393.47	444.07	305.54	395.78	409.6	123.59	376.53	440.51	138.91	290.48	355.85	84.63	311.86	373.79	56.6	283.4	360.11	51.815	345.75	520.86	61.088	417.41	571.54	71.261	307.33	624.06	96.533	362.79	182.78	703.83	87.939	253.82	600.18	92.621	183.09	614.86	99.885	248.47	689.36	76.232	208.54	514.26	106.27	215.47	503.8	229.97	98.521	344.85	113.38	157.72	251.21	113.36	95.62	267.64	121.06	160.86	327.46	104.65	119.15	104.23	135.56	123.81	113.86	228.89	40.79	74.076	181.58	46.948	48.821	215.33	44.488	46.62	153.51	227.84	42.06	112.54	260.19	46.415	229.15	316.85	55.374	178.97	211.16	1559.1	242.37	129.02	1302.6	221.58
320	1.3292	393.07	1282.6	248.42	262.14	1513.2	416.59	270.96	1495.4	65.298	298.93	1837	227.93	357.3	1004.8	376.1	348.35	1016.8	128.74	141.72	1032.7	288.35	147.13	1039	207.24	281.16	924.25	445.79	225.62	932.48	70.406	269.55	1094.6	421.86	255.52	1099.9	85.833	124.98	993.4	246.82	365.26	675.32	436.88	461.93	623.1	398.79	395.32	590.48	421.41	433.99	728.82	419.24	436.63	534.83	411.82	416.84	523.45	277.43	387.66	305.43	407.8	467.33	236.55	373.72	397.34	236.57	393.69	454.44	305.49	395.97	424.68	122.68	376.84	454.98	138.7	290.64	371.77	82.338	312.32	390.26	54.715	283.86	376.86	49.684	346.23	537.6	62.876	417.38	587.7	74.16	307.15	639.75	100.74	362.41	186.27	703.84	88.087	256.75	599.81	92.83	186.09	614.86	100.03	251.89	689.02	76.467	210.81	514.06	106.3	217.8	503.58	230.01	99.916	345.28	113.45	158.58	251.27	113.4	96.591	268.04	121.17	162.1	327.52	104.69	119.31	104.37	135.7	124.03	113.98	228.97	40.861	74.197	181.74	47.008	48.881	215.43	44.545	46.786	153.63	227.88	42.05	112.58	260.27	46.248	229.19	316.95	55.136	178.98	216.57	1558.4	242.47	134.39	1302	221.52
321	1.3333	398.44	1281.8	248.62	267.39	1512.5	416.75	276.54	1494.7	65.478	304.26	1836.3	228.14	362.76	1004.1	376.06	353.48	1016	128.75	147.04	1032.1	288.56	152.4	1038.3	207.44	286.55	923.61	445.92	230.48	931.98	70.509	275.15	1093.9	421.96	260.68	1099.2	85.911	130.28	992.77	247.05	369.65	674.36	436.98	466.29	622.05	398.93	399.62	589.5	421.46	438.42	727.8	419.31	441.53	534.25	411.91	421.45	522.34	277.49	397.94	303.78	408.03	479.19	236.88	373.87	409.28	235.16	393.91	464.64	305.5	396.13	439.51	121.94	377.11	469.18	138.65	290.78	387.46	80.263	312.76	406.47	53.053	284.28	393.34	47.791	346.69	553.99	64.835	417.31	603.5	77.19	306.94	655.07	105.05	362	189.84	703.83	88.229	259.76	599.43	93.038	189.17	614.83	100.17	255.38	688.67	76.7	213.16	513.85	106.33	220.22	503.36	230.06	101.37	345.72	113.52	159.48	251.34	113.43	97.607	268.46	121.28	163.41	327.58	104.73	119.47	104.51	135.83	124.26	114.11	229.05	40.934	74.324	181.9	47.07	48.949	215.54	44.601	46.958	153.75	227.91	42.036	112.63	260.35	46.083	229.23	317.05	54.892	178.99	221.97	1557.7	242.59	139.75	1301.4	221.49
